<svg id="Layer_1" data-name="Layer 1" xmlns="http://www.w3.org/2000/svg" viewBox="0 0 178.28 123.19"><defs><style>.cls-1{fill:#27302f;}.cls-2{fill:#eb2a2f;}</style></defs><path class="cls-1" d="M124.74,125.06c0-4.21-.11-7.7,0-11.18.11-2.48-.88-3.6-3.33-4-13-2.12-25.58-.92-37.7,4.39A18.47,18.47,0,0,1,81,115.45a8.34,8.34,0,0,1-2.28,0,9.86,9.86,0,0,1,.56-2.41,9.91,9.91,0,0,1,1.63-1.88c9.34-10.44,18.7-20.85,28-31.33a11.83,11.83,0,0,0,1.44-3.18c-1.16-.43-2.31-1.23-3.47-1.24-21.1-.07-42.2,0-63.3,0H40.85a9.52,9.52,0,0,1,5.65-9.75,15.57,15.57,0,0,1,6.23-1.49q40.15-.13,80.32,0c1,0,2.78.55,2.88,1.1a4.35,4.35,0,0,1-1.05,3.21C127,77.3,119,86.16,111.06,95c-.59.66-1.16,1.35-1.9,2.23,4.71.46,9.13,1,13.57,1.28,2,.13,1.93-1.58,2-3,.35-5.08,5.55-7.86,9.48-4.85a7.28,7.28,0,0,1,2.52,4.78c.33,4.9.16,9.83.1,14.74a9.3,9.3,0,0,1-3.41,7.23C130.68,119.78,128,122.22,124.74,125.06Z" transform="translate(-35.86 -63.4)"/><path class="cls-2" d="M35.86,161.4,56.7,138.12c3.73-4.16,7.49-8.29,11.18-12.48a6.36,6.36,0,0,1,6.53-2.15,5.42,5.42,0,0,1,3.22,8.77c-2.31,2.85-4.83,5.52-7.28,8.25-1.56,1.75-2.35,3.69-1.28,6A5.77,5.77,0,0,0,74.61,150c14.76,0,29.52,0,44.29,0,3.65,0,5.85-2.37,5.82-6.08-.13-12.47.17-11,8.48-18.47,1.05-.93,2.12-1.85,3.44-3a16.33,16.33,0,0,1,.23,1.87q0,27.75,0,55.5c0,4.22-2.28,6.74-6,6.77s-6.08-2.53-6.13-6.68c0-3.67,0-7.33,0-11,0-5.67-1.83-7.52-7.45-7.52q-39,0-78.07,0Z" transform="translate(-35.86 -63.4)"/><path class="cls-1" d="M160.7,101.23v3.22q0,31.36,0,62.72c0,5.27,2,7.28,7.2,7.29h38.52a18.93,18.93,0,0,1,2.5.07,5.85,5.85,0,0,1,5.22,5.75,5.76,5.76,0,0,1-5.28,5.41,18.73,18.73,0,0,1-2.25.07H156.09c-5.58,0-7.47-1.91-7.47-7.52,0-20.33,0-40.65,0-61a10.56,10.56,0,0,1,4-8.94C155.26,106.21,157.71,103.87,160.7,101.23Z" transform="translate(-35.86 -63.4)"/><path class="cls-2" d="M148.63,103.16c0-11.41,0-22.82,0-34.22a6,6,0,0,1,12-.08c.1,7,.12,14-.06,21a7.47,7.47,0,0,1-1.64,4.59c-3.05,3.23-6.45,6.13-9.71,9.16Z" transform="translate(-35.86 -63.4)"/></svg>