<svg xmlns="http://www.w3.org/2000/svg" version="1.1" xmlns:xlink="http://www.w3.org/1999/xlink" xmlns:svgjs="http://svgjs.dev/svgjs" width="1440" height="560" preserveAspectRatio="none" viewBox="0 0 1440 560"><g mask="url(&quot;#SvgjsMask1010&quot;)" fill="none"><rect width="1440" height="560" x="0" y="0" fill="rgba(39, 48, 47, 1)"></rect><path d="M1527.62 174.91C1395.86 179.96 1296.95 395.89 1047.53 393.31 798.12 390.73 734.02-55.76 567.45-96.24" stroke="rgba(222, 48, 47, 1)" stroke-width="2"></path><path d="M1644.89 389.7C1484.56 385.51 1296.27 165.58 1048.02 154.5 799.76 143.42 838.51-33.55 749.58-42.12" stroke="rgba(222, 48, 47, 1)" stroke-width="2"></path><path d="M1451.22 238.77C1262.83 240.63 1007.41 443.06 725.08 440.37 442.75 437.68 504.97-1.13 362.01-59.71" stroke="rgba(222, 48, 47, 1)" stroke-width="2"></path><path d="M1681.82 19.87C1528.76 24.85 1401.92 260.86 1118.57 260.67 835.22 260.48 722.48-89.39 555.32-104.95" stroke="rgba(222, 48, 47, 1)" stroke-width="2"></path><path d="M1578.49 152.75C1478.16 152.48 1380.9 82.75 1183.32 82.75 985.73 82.75 988.35 153.17 788.15 152.75 587.95 152.33 503.47-40.83 392.98-46.35" stroke="rgba(222, 48, 47, 1)" stroke-width="2"></path></g><defs><mask id="SvgjsMask1010"><rect width="1440" height="560" fill="#ffffff"></rect></mask></defs></svg>