<svg xmlns="http://www.w3.org/2000/svg" version="1.1" xmlns:xlink="http://www.w3.org/1999/xlink" xmlns:svgjs="http://svgjs.dev/svgjs" width="1440" height="560" preserveAspectRatio="none" viewBox="0 0 1440 560"><g mask="url(&quot;#SvgjsMask1074&quot;)" fill="none"><rect width="1440" height="560" x="0" y="0" fill="rgba(39, 48, 47, 1)"></rect><g mask="url(&quot;#SvgjsMask1075&quot;)"><path d="M635.5 201.5L666.5 232.5L697.5 232.5L728.5 232.5L759.5 232.5M542.5 232.5L573.5 232.5L604.5 232.5L635.5 232.5M201.5 263.5L232.5 294.5L263.5 294.5M170.5 263.5L201.5 294.5M418.5 232.5L449.5 263.5M-15.5 294.5L15.5 294.5L46.5 294.5L77.5 294.5L108.5 294.5L139.5 294.5L170.5 263.5L201.5 263.5L232.5 263.5L263.5 263.5L294.5 263.5L325.5 263.5L356.5 263.5L387.5 232.5L418.5 232.5L449.5 232.5L480.5 232.5L511.5 232.5L542.5 232.5L573.5 201.5L604.5 201.5L635.5 201.5L666.5 201.5" stroke="rgba(255, 255, 255, 1)" stroke-width="5.17"></path><path d="M658.75 201.5 a7.75 7.75 0 1 0 15.5 0 a7.75 7.75 0 1 0 -15.5 0zM751.75 232.5 a7.75 7.75 0 1 0 15.5 0 a7.75 7.75 0 1 0 -15.5 0zM627.75 232.5 a7.75 7.75 0 1 0 15.5 0 a7.75 7.75 0 1 0 -15.5 0zM255.75 294.5 a7.75 7.75 0 1 0 15.5 0 a7.75 7.75 0 1 0 -15.5 0zM193.75 294.5 a7.75 7.75 0 1 0 15.5 0 a7.75 7.75 0 1 0 -15.5 0zM441.75 263.5 a7.75 7.75 0 1 0 15.5 0 a7.75 7.75 0 1 0 -15.5 0z" fill="rgba(255, 255, 255, 1)"></path><path d="M511.5 201.5L542.5 170.5L573.5 139.5M449.5 201.5L480.5 170.5L511.5 170.5L542.5 139.5L573.5 108.5M325.5 201.5L356.5 232.5M-15.5 263.5L15.5 263.5L46.5 263.5L77.5 263.5L108.5 263.5L139.5 263.5L170.5 232.5L201.5 232.5L232.5 232.5L263.5 232.5L294.5 201.5L325.5 201.5L356.5 201.5L387.5 201.5L418.5 201.5L449.5 201.5L480.5 201.5L511.5 201.5L542.5 201.5L573.5 170.5" stroke="rgba(255, 255, 255, 1)" stroke-width="5.17"></path><path d="M565.75 170.5 a7.75 7.75 0 1 0 15.5 0 a7.75 7.75 0 1 0 -15.5 0zM565.75 139.5 a7.75 7.75 0 1 0 15.5 0 a7.75 7.75 0 1 0 -15.5 0zM565.75 108.5 a7.75 7.75 0 1 0 15.5 0 a7.75 7.75 0 1 0 -15.5 0zM348.75 232.5 a7.75 7.75 0 1 0 15.5 0 a7.75 7.75 0 1 0 -15.5 0z" fill="rgba(255, 255, 255, 1)"></path><path d="M263.5 325.5L294.5 325.5M325.5 294.5L356.5 325.5L387.5 325.5L418.5 325.5L449.5 325.5L480.5 325.5M-15.5 325.5L15.5 325.5L46.5 325.5L77.5 325.5L108.5 325.5L139.5 325.5L170.5 325.5L201.5 325.5L232.5 325.5L263.5 325.5L294.5 294.5L325.5 294.5L356.5 294.5L387.5 294.5L418.5 294.5" stroke="rgba(255, 255, 255, 1)" stroke-width="5.17"></path><path d="M410.75 294.5 a7.75 7.75 0 1 0 15.5 0 a7.75 7.75 0 1 0 -15.5 0zM286.75 325.5 a7.75 7.75 0 1 0 15.5 0 a7.75 7.75 0 1 0 -15.5 0zM472.75 325.5 a7.75 7.75 0 1 0 15.5 0 a7.75 7.75 0 1 0 -15.5 0z" fill="rgba(255, 255, 255, 1)"></path><path d="M-15.5 232.5L15.5 232.5L46.5 232.5L77.5 232.5L108.5 232.5" stroke="rgba(255, 255, 255, 1)" stroke-width="5.17"></path><path d="M100.75 232.5 a7.75 7.75 0 1 0 15.5 0 a7.75 7.75 0 1 0 -15.5 0z" fill="rgba(255, 255, 255, 1)"></path><path d="M201.5 356.5L232.5 387.5L263.5 387.5L294.5 418.5L325.5 418.5L356.5 418.5M294.5 356.5L325.5 387.5L356.5 387.5L387.5 387.5M108.5 356.5L139.5 387.5L170.5 387.5M-15.5 356.5L15.5 356.5L46.5 356.5L77.5 356.5L108.5 356.5L139.5 356.5L170.5 356.5L201.5 356.5L232.5 356.5L263.5 356.5L294.5 356.5L325.5 356.5L356.5 356.5L387.5 356.5" stroke="rgba(222, 48, 47, 1)" stroke-width="5.17"></path><path d="M379.75 356.5 a7.75 7.75 0 1 0 15.5 0 a7.75 7.75 0 1 0 -15.5 0zM348.75 418.5 a7.75 7.75 0 1 0 15.5 0 a7.75 7.75 0 1 0 -15.5 0zM379.75 387.5 a7.75 7.75 0 1 0 15.5 0 a7.75 7.75 0 1 0 -15.5 0zM162.75 387.5 a7.75 7.75 0 1 0 15.5 0 a7.75 7.75 0 1 0 -15.5 0z" fill="rgba(222, 48, 47, 1)"></path><path d="M449.5 139.5L480.5 108.5L511.5 108.5M-15.5 201.5L15.5 201.5L46.5 201.5L77.5 201.5L108.5 201.5L139.5 201.5L170.5 201.5L201.5 201.5L232.5 201.5L263.5 201.5L294.5 170.5L325.5 170.5L356.5 170.5L387.5 170.5L418.5 170.5L449.5 139.5L480.5 139.5" stroke="rgba(222, 48, 47, 1)" stroke-width="5.17"></path><path d="M472.75 139.5 a7.75 7.75 0 1 0 15.5 0 a7.75 7.75 0 1 0 -15.5 0zM503.75 108.5 a7.75 7.75 0 1 0 15.5 0 a7.75 7.75 0 1 0 -15.5 0z" fill="rgba(222, 48, 47, 1)"></path><path d="M139.5 418.5L170.5 418.5L201.5 418.5L232.5 449.5L263.5 449.5M15.5 387.5L46.5 387.5L77.5 387.5L108.5 387.5M46.5 418.5L77.5 449.5L108.5 449.5M-15.5 387.5L15.5 387.5L46.5 418.5L77.5 418.5L108.5 418.5L139.5 418.5L170.5 449.5L201.5 449.5L232.5 480.5L263.5 480.5L294.5 480.5L325.5 480.5L356.5 480.5" stroke="rgba(222, 48, 47, 1)" stroke-width="5.17"></path><path d="M348.75 480.5 a7.75 7.75 0 1 0 15.5 0 a7.75 7.75 0 1 0 -15.5 0zM255.75 449.5 a7.75 7.75 0 1 0 15.5 0 a7.75 7.75 0 1 0 -15.5 0zM100.75 387.5 a7.75 7.75 0 1 0 15.5 0 a7.75 7.75 0 1 0 -15.5 0zM100.75 449.5 a7.75 7.75 0 1 0 15.5 0 a7.75 7.75 0 1 0 -15.5 0z" fill="rgba(222, 48, 47, 1)"></path><path d="M325.5 139.5L356.5 108.5M294.5 139.5L325.5 108.5M201.5 170.5L232.5 139.5L263.5 108.5L294.5 108.5L325.5 77.5M-15.5 170.5L15.5 170.5L46.5 170.5L77.5 170.5L108.5 170.5L139.5 170.5L170.5 170.5L201.5 170.5L232.5 170.5L263.5 170.5L294.5 139.5L325.5 139.5L356.5 139.5L387.5 139.5" stroke="rgba(255, 255, 255, 1)" stroke-width="5.17"></path><path d="M379.75 139.5 a7.75 7.75 0 1 0 15.5 0 a7.75 7.75 0 1 0 -15.5 0zM348.75 108.5 a7.75 7.75 0 1 0 15.5 0 a7.75 7.75 0 1 0 -15.5 0zM317.75 108.5 a7.75 7.75 0 1 0 15.5 0 a7.75 7.75 0 1 0 -15.5 0zM317.75 77.5 a7.75 7.75 0 1 0 15.5 0 a7.75 7.75 0 1 0 -15.5 0z" fill="rgba(255, 255, 255, 1)"></path></g></g><defs><mask id="SvgjsMask1074"><rect width="1440" height="560" fill="#ffffff"></rect></mask><mask id="SvgjsMask1075"><rect width="1440" height="560" fill="white"></rect><path d="M662.62 201.5 a3.88 3.88 0 1 0 7.76 0 a3.88 3.88 0 1 0 -7.76 0zM755.62 232.5 a3.88 3.88 0 1 0 7.76 0 a3.88 3.88 0 1 0 -7.76 0zM631.62 232.5 a3.88 3.88 0 1 0 7.76 0 a3.88 3.88 0 1 0 -7.76 0zM259.62 294.5 a3.88 3.88 0 1 0 7.76 0 a3.88 3.88 0 1 0 -7.76 0zM197.62 294.5 a3.88 3.88 0 1 0 7.76 0 a3.88 3.88 0 1 0 -7.76 0zM445.62 263.5 a3.88 3.88 0 1 0 7.76 0 a3.88 3.88 0 1 0 -7.76 0z" fill="black"></path><path d="M569.62 170.5 a3.88 3.88 0 1 0 7.76 0 a3.88 3.88 0 1 0 -7.76 0zM569.62 139.5 a3.88 3.88 0 1 0 7.76 0 a3.88 3.88 0 1 0 -7.76 0zM569.62 108.5 a3.88 3.88 0 1 0 7.76 0 a3.88 3.88 0 1 0 -7.76 0zM352.62 232.5 a3.88 3.88 0 1 0 7.76 0 a3.88 3.88 0 1 0 -7.76 0z" fill="black"></path><path d="M414.62 294.5 a3.88 3.88 0 1 0 7.76 0 a3.88 3.88 0 1 0 -7.76 0zM290.62 325.5 a3.88 3.88 0 1 0 7.76 0 a3.88 3.88 0 1 0 -7.76 0zM476.62 325.5 a3.88 3.88 0 1 0 7.76 0 a3.88 3.88 0 1 0 -7.76 0z" fill="black"></path><path d="M104.62 232.5 a3.88 3.88 0 1 0 7.76 0 a3.88 3.88 0 1 0 -7.76 0z" fill="black"></path><path d="M383.62 356.5 a3.88 3.88 0 1 0 7.76 0 a3.88 3.88 0 1 0 -7.76 0zM352.62 418.5 a3.88 3.88 0 1 0 7.76 0 a3.88 3.88 0 1 0 -7.76 0zM383.62 387.5 a3.88 3.88 0 1 0 7.76 0 a3.88 3.88 0 1 0 -7.76 0zM166.62 387.5 a3.88 3.88 0 1 0 7.76 0 a3.88 3.88 0 1 0 -7.76 0z" fill="black"></path><path d="M476.62 139.5 a3.88 3.88 0 1 0 7.76 0 a3.88 3.88 0 1 0 -7.76 0zM507.62 108.5 a3.88 3.88 0 1 0 7.76 0 a3.88 3.88 0 1 0 -7.76 0z" fill="black"></path><path d="M352.62 480.5 a3.88 3.88 0 1 0 7.76 0 a3.88 3.88 0 1 0 -7.76 0zM259.62 449.5 a3.88 3.88 0 1 0 7.76 0 a3.88 3.88 0 1 0 -7.76 0zM104.62 387.5 a3.88 3.88 0 1 0 7.76 0 a3.88 3.88 0 1 0 -7.76 0zM104.62 449.5 a3.88 3.88 0 1 0 7.76 0 a3.88 3.88 0 1 0 -7.76 0z" fill="black"></path><path d="M383.62 139.5 a3.88 3.88 0 1 0 7.76 0 a3.88 3.88 0 1 0 -7.76 0zM352.62 108.5 a3.88 3.88 0 1 0 7.76 0 a3.88 3.88 0 1 0 -7.76 0zM321.62 108.5 a3.88 3.88 0 1 0 7.76 0 a3.88 3.88 0 1 0 -7.76 0zM321.62 77.5 a3.88 3.88 0 1 0 7.76 0 a3.88 3.88 0 1 0 -7.76 0z" fill="black"></path></mask></defs></svg>