<svg id="Layer_1" data-name="Layer 1" xmlns="http://www.w3.org/2000/svg" viewBox="0 0 172.99 119.54"><defs><style>.cls-1{fill:#27302f;}.cls-2{fill:#fff;}</style></defs><path class="cls-1" d="M124.74,125.05c0-4.07-.1-7.46,0-10.84.1-2.41-.86-3.49-3.23-3.88-12.62-2.06-24.83-.89-36.59,4.26a18.37,18.37,0,0,1-2.67,1.15,8.32,8.32,0,0,1-2.22-.06,9.79,9.79,0,0,1,.55-2.33,9.7,9.7,0,0,1,1.58-1.83q13.59-15.18,27.15-30.4A11.1,11.1,0,0,0,110.74,78c-1.12-.42-2.24-1.2-3.36-1.2-20.47-.08-40.95-.06-61.42-.06H43.35a9.24,9.24,0,0,1,5.48-9.46,15.17,15.17,0,0,1,6.05-1.44q39-.13,77.93,0c1,0,2.7.53,2.8,1.07a4.2,4.2,0,0,1-1,3.11c-7.65,8.67-15.39,17.26-23.11,25.87-.57.65-1.12,1.32-1.84,2.18,4.57.44,8.86,1,13.17,1.23,2,.13,1.87-1.53,2-2.94.34-4.94,5.38-7.64,9.2-4.72a7.14,7.14,0,0,1,2.44,4.65c.32,4.75.16,9.53.1,14.3a9,9,0,0,1-3.31,7C130.51,119.93,127.88,122.3,124.74,125.05Z" transform="translate(-38.51 -65.23)"/><path class="cls-2" d="M38.51,160.32c7.07-7.9,13.64-15.25,20.22-22.59,3.62-4,7.27-8,10.84-12.11a6.19,6.19,0,0,1,6.34-2.08A5.25,5.25,0,0,1,79,132c-2.24,2.77-4.69,5.36-7.06,8-1.53,1.7-2.29,3.58-1.25,5.77a5.59,5.59,0,0,0,5.37,3.48c14.33,0,28.65,0,43,0,3.54,0,5.68-2.3,5.64-5.91-.12-12.09.17-10.7,8.24-17.91,1-.91,2.06-1.8,3.34-2.91a17.3,17.3,0,0,1,.22,1.81q0,26.93,0,53.86c0,4.09-2.2,6.53-5.82,6.56s-5.91-2.45-5.95-6.48c0-3.56,0-7.11,0-10.67,0-5.5-1.77-7.3-7.22-7.3h-79Z" transform="translate(-38.51 -65.23)"/><path class="cls-1" d="M159.64,101.93v64c0,5.11,1.92,7.07,7,7.07H204a19.67,19.67,0,0,1,2.43.07,5.67,5.67,0,0,1,5.06,5.58,5.59,5.59,0,0,1-5.12,5.25,17.58,17.58,0,0,1-2.18.06q-24.51,0-49,0c-5.42,0-7.25-1.85-7.25-7.29,0-19.72,0-39.44,0-59.17a10.26,10.26,0,0,1,3.9-8.68C154.36,106.77,156.74,104.5,159.64,101.93Z" transform="translate(-38.51 -65.23)"/><path class="cls-2" d="M147.93,103.81c0-11.07-.05-22.14,0-33.21a5.83,5.83,0,0,1,11.62-.07c.1,6.79.12,13.58-.06,20.37a7.16,7.16,0,0,1-1.59,4.44c-3,3.14-6.25,6-9.42,8.89Z" transform="translate(-38.51 -65.23)"/></svg>